<svg width="148" height="167" viewBox="0 0 148 167" fill="none" xmlns="http://www.w3.org/2000/svg">
<path d="M65.8047 1.44328C57.0462 4.14185 49.1275 16.5301 48.6175 27.773C48.1132 38.894 55.209 41.1471 56.1387 52.9893C57.1216 65.5103 49.9393 72.5554 44.7292 85.4758C36.9322 104.811 33.9501 136.316 47.4694 153.225C63.1757 172.869 98.8547 169.936 109.66 152.955C119.47 137.538 102.89 119.793 113.902 97.7176C123.048 79.3829 139.416 81.7383 145.413 63.5843C149.421 51.4531 146.942 35.782 139.56 26.7526C128.227 12.8891 114.341 25.6958 88.6837 11.6066C77.2292 5.31656 73.3551 -0.883108 65.8047 1.44328Z" fill="#EEF8FF"/>
<path d="M97.5281 54.8725C98.532 57.7751 101.751 70.5873 102.041 73.5194C102.364 76.7791 96.6073 77.537 93.4278 76.7499C87.7132 75.3355 84.6533 74.5844 76.6251 74.5098C76.6251 74.5098 52.0296 78.5685 69.12 44.2279C70.75 40.9528 73.8883 33.9632 76.4674 33.9632L80.365 40.621L87.9824 36.125C90.9033 34.1146 93.7911 34.1809 96.3824 35.5393" fill="#EBE6FF"/>
<path d="M97.5281 54.8725C98.532 57.7751 101.751 70.5873 102.041 73.5194C102.364 76.7791 96.6073 77.537 93.4278 76.7499C87.7132 75.3355 84.6533 74.5844 76.6251 74.5098C76.6251 74.5098 52.0296 78.5685 69.12 44.2279C70.75 40.9528 73.8883 33.9632 76.4674 33.9632L80.365 40.621L87.9824 36.125C90.9033 34.1146 93.7911 34.1809 96.3824 35.5393" stroke="black" stroke-width="0.7885" stroke-miterlimit="10" stroke-linecap="round"/>
<path d="M98.5394 78.8527C93.2127 93.28 96.4194 121.147 99.8774 137.908" stroke="black" stroke-width="0.7885" stroke-miterlimit="10" stroke-linecap="round"/>
<path d="M81.9796 91.7092C80.2132 108.837 83.0963 125.767 82.6104 142.27" stroke="black" stroke-width="0.7885" stroke-miterlimit="10" stroke-linecap="round"/>
<path d="M68.8466 82.9633C65.897 100.66 71.298 116.261 71.8408 132.909" stroke="black" stroke-width="0.7885" stroke-miterlimit="10" stroke-linecap="round"/>
<path d="M69.818 145.418L68.3791 146.683L61.9448 149.578C60.8171 150.086 60.232 151.388 60.6852 152.539C60.8384 152.928 61.1035 153.306 61.5376 153.622" stroke="black" stroke-width="0.7885" stroke-miterlimit="10" stroke-linecap="round"/>
<path d="M84.1007 151.583L83.6035 147.65" stroke="black" stroke-width="0.7885" stroke-miterlimit="10" stroke-linecap="round"/>
<path d="M84.4494 155.037L84.1012 151.583L61.0938 153.662L61.3465 155.972C61.3956 156.514 61.8745 156.914 62.4165 156.865L84.4494 155.037Z" stroke="black" stroke-width="0.7885" stroke-miterlimit="10" stroke-linecap="round"/>
<path d="M68.3809 146.683C68.3809 146.683 70.963 148.652 72.1554 147.717" stroke="black" stroke-width="0.7885" stroke-miterlimit="10" stroke-linecap="round"/>
<path d="M72.1574 137.828C72.1574 141.105 67.4245 141.791 67.6462 142.944C68.2526 146.097 74.7766 147.099 77.1037 147.456C79.2643 147.787 82.4888 148.007 86.4497 147.242" stroke="black" stroke-width="0.7885" stroke-miterlimit="10" stroke-linecap="round"/>
<path d="M99.2003 150.373L99.3416 154.334H76.6863C76.2824 153.98 76.0527 153.579 75.9352 153.178C75.5873 151.992 76.2872 150.747 77.456 150.343L84.1249 148.039L85.6716 146.908" fill="#EEF8FF"/>
<path d="M99.2004 150.373L99.3416 154.334H76.6863C76.2824 153.98 76.0527 153.579 75.9352 153.178C75.5873 151.992 76.2872 150.747 77.456 150.343L84.1249 148.039L85.6716 146.908" stroke="black" stroke-width="0.7885" stroke-miterlimit="10" stroke-linecap="round"/>
<path d="M77.2234 157.611C76.6794 157.611 76.2383 157.17 76.2383 156.626V154.334H76.6843H99.3394V156.626C99.3394 157.17 98.8984 157.611 98.3543 157.611H77.2234Z" fill="#EEF8FF"/>
<path d="M77.2234 157.611C76.6794 157.611 76.2383 157.17 76.2383 156.626V154.334H76.6843H99.3394V156.626C99.3394 157.17 98.8984 157.611 98.3543 157.611H77.2234Z" stroke="black" stroke-width="0.7885" stroke-miterlimit="10" stroke-linecap="round"/>
<path d="M84.125 148.039C84.125 148.039 86.5195 150.232 87.7912 149.409L84.125 148.039Z" fill="#EEF8FF"/>
<path d="M84.125 148.039C84.125 148.039 86.5195 150.232 87.7912 149.409" stroke="black" stroke-width="0.7885" stroke-miterlimit="10" stroke-linecap="round"/>
<path d="M82.8294 140.474C81.9711 141.352 81.245 142.449 81.362 143.618C81.682 146.813 88.0897 148.398 90.3752 148.963C92.4971 149.487 95.6888 149.996 99.7025 149.592" fill="#EEF8FF"/>
<path d="M82.8294 140.474C81.9711 141.352 81.245 142.449 81.362 143.618C81.682 146.813 88.0897 148.398 90.3752 148.963C92.4971 149.487 95.6888 149.996 99.7025 149.592" stroke="black" stroke-width="0.7885" stroke-miterlimit="10" stroke-linecap="round"/>
<path d="M81.5525 74.7473C81.8483 77.9837 82.1445 80.2358 82.629 83.9567C70.4 87.6794 62.8427 89.3243 49.7641 92.8266C49.1472 88.6778 48.964 86.3123 48.4652 82.2674" fill="#DDBC8C"/>
<path d="M81.5525 74.7473C81.8483 77.9837 82.1445 80.2358 82.629 83.9567C70.4 87.6794 62.8427 89.3243 49.7641 92.8266C49.1472 88.6778 48.964 86.3123 48.4652 82.2674" stroke="black" stroke-width="0.7885" stroke-miterlimit="10" stroke-linecap="round"/>
<path d="M47.717 82.4088C47.6563 86.9574 48.1259 88.9804 48.2097 93.1542C40.1664 91.9663 38.6363 90.8399 29.5687 89.313C29.801 84.7182 29.6662 85.5186 29.695 81.2467" fill="#DDBC8C"/>
<path d="M47.717 82.4088C47.6563 86.9574 48.1259 88.9804 48.2097 93.1542C40.1664 91.9663 38.6363 90.8399 29.5687 89.313C29.801 84.7182 29.6662 85.5186 29.695 81.2467" stroke="black" stroke-width="0.7885" stroke-miterlimit="10" stroke-linecap="round"/>
<path d="M48.741 51.1717C59.2386 51.7016 66.2274 49.0913 77.9085 48.3058C77.3473 57.0517 77.9448 64.1126 81.7031 75.2025C71.5965 79.0851 58.4216 80.7792 47.718 82.4089C40.7094 81.8814 36.7047 81.7744 29.6961 81.2469C28.9434 71.1148 27.3588 62.0832 25.1308 55.7611C31.8147 53.9478 42.0571 52.985 48.741 51.1717Z" fill="#DDBC8C"/>
<path d="M48.741 51.1717C59.2386 51.7016 66.2274 49.0913 77.9085 48.3058C77.3473 57.0517 77.9448 64.1126 81.7031 75.2025C71.5965 79.0851 58.4216 80.7792 47.718 82.4089C40.7094 81.8814 36.7047 81.7744 29.6961 81.2469C28.9434 71.1148 27.3588 62.0832 25.1308 55.7611C31.8147 53.9478 42.0571 52.985 48.741 51.1717Z" stroke="black" stroke-width="0.7885" stroke-miterlimit="10" stroke-linecap="round"/>
<path d="M25.1309 55.7609C31.8533 55.9138 37.1355 56.2002 43.3482 55.9548C44.958 65.7418 46.1388 72.3342 47.7487 82.1209" fill="#DDBC8C"/>
<path d="M25.1309 55.7609C31.8533 55.9138 37.1355 56.2002 43.3482 55.9548C44.958 65.7418 46.1388 72.3342 47.7487 82.1209" stroke="black" stroke-width="0.7885" stroke-miterlimit="10" stroke-linecap="round"/>
<path d="M43.4126 56.0145C54.2171 53.7514 67.104 50.5688 77.9084 48.3057" stroke="black" stroke-width="0.7885" stroke-miterlimit="10" stroke-linecap="round"/>
<path d="M34.0598 55.9993C34.0598 55.9993 39.3552 81.7797 38.504 81.7157" stroke="black" stroke-width="0.7885" stroke-miterlimit="10" stroke-linecap="round"/>
<path d="M38.3466 75.4583L36.6915 75.6621C36.3726 69.233 35.0203 62.0864 35.0203 62.0864L36.6752 61.8826C36.6752 61.8826 37.788 68.9933 38.3466 75.4583Z" fill="white"/>
<path d="M38.3466 75.4583L36.6915 75.6621C36.3726 69.233 35.0203 62.0864 35.0203 62.0864L36.6752 61.8826C36.6752 61.8826 37.788 68.9933 38.3466 75.4583Z" stroke="black" stroke-width="0.7885" stroke-miterlimit="10" stroke-linecap="round"/>
<path d="M93.479 31.5284C109.187 34.6727 108.822 57.283 97.6231 61.8946C95.0913 62.9372 91.3466 63.979 88.8153 65.0228" fill="#EBE6FF"/>
<path d="M93.479 31.5284C109.187 34.6727 108.822 57.283 97.6231 61.8946C95.0913 62.9372 91.3466 63.979 88.8153 65.0228" stroke="black" stroke-width="0.7885" stroke-miterlimit="10" stroke-linecap="round"/>
<path d="M75.3952 60.8827C74.749 59.5312 76.2441 57.89 77.7388 57.9919C79.2333 58.094 80.4077 59.3929 80.934 60.7955C81.4602 62.198 81.5 63.7276 81.7335 65.2074C81.9671 66.6872 82.4612 68.2299 83.3705 69.5291C82.116 68.2359 80.265 66.1915 79.0105 64.8983" fill="#7B5EF2"/>
<path d="M75.3952 60.8827C74.749 59.5312 76.2441 57.89 77.7388 57.9919C79.2333 58.094 80.4077 59.3929 80.934 60.7955C81.4602 62.198 81.5 63.7276 81.7335 65.2074C81.9671 66.6872 82.4612 68.2299 83.3705 69.5291C82.116 68.2359 80.265 66.1915 79.0105 64.8983" stroke="black" stroke-width="0.7885" stroke-miterlimit="10" stroke-linecap="round"/>
<path d="M78.3562 59.668L71.4657 61.6296L68.3677 61.2207C67.3952 61.0924 66.6887 62.1228 67.1592 62.9836C67.1592 62.9836 61.7345 63.4186 62.8571 67.068C63.7523 69.9781 69.5657 72.6984 72.032 66.0774L81.0272 64.1349" fill="#EEF8FF"/>
<path d="M78.3562 59.668L71.4657 61.6296L68.3677 61.2207C67.3952 61.0924 66.6887 62.1228 67.1592 62.9836C67.1592 62.9836 61.7345 63.4186 62.8571 67.068C63.7523 69.9781 69.5657 72.6984 72.032 66.0774L81.0272 64.1349" stroke="black" stroke-width="0.7885" stroke-miterlimit="10" stroke-linecap="round"/>
<path d="M76.4922 60.1988L82.4883 58.4917L84.0425 63.4837L80.4508 64.2593" fill="#E1EBFF"/>
<path d="M76.4922 60.1988L82.4883 58.4917L84.0425 63.4837L80.4508 64.2593" stroke="black" stroke-width="0.7885" stroke-miterlimit="10" stroke-linecap="square"/>
<path d="M76.1689 58.5055C76.6166 58.1607 77.1771 57.9537 77.7375 57.9919C79.2322 58.0938 80.4065 59.3929 80.9328 60.7955C81.4592 62.198 81.4988 63.7276 81.7323 65.2074C81.966 66.6871 82.46 68.2299 83.3694 69.5292L83.264 69.3742C84.1288 70.7985 87.9309 70.047 90.2642 70.6646C88.528 65.1846 88.3219 58.2833 82.8472 54.9149" fill="#EBE6FF"/>
<path d="M76.1689 58.5055C76.6166 58.1607 77.1771 57.9537 77.7375 57.9919C79.2322 58.0938 80.4065 59.3929 80.9328 60.7955C81.4592 62.198 81.4988 63.7276 81.7323 65.2074C81.966 66.6871 82.46 68.2299 83.3694 69.5292L83.264 69.3742C84.1288 70.7985 87.9309 70.047 90.2642 70.6646C88.528 65.1846 88.3219 58.2833 82.8472 54.9149" stroke="black" stroke-width="0.7885" stroke-miterlimit="10" stroke-linecap="round"/>
<path d="M75.7445 58.854C78.6668 55.9002 83.4135 55.1995 86.5746 53.5778C91.7995 51.2618 91.9226 50.6548 90.516 44.6081" stroke="black" stroke-width="0.7885" stroke-miterlimit="10" stroke-linecap="round"/>
<path d="M87.1049 66.3304C87.3654 66.8004 87.1956 67.3925 86.7257 67.653C86.2558 67.9134 85.6638 67.7436 85.4033 67.2737C85.1428 66.8037 85.3125 66.2117 85.7824 65.9512C86.2523 65.6907 86.8444 65.8605 87.1049 66.3304Z" stroke="black" stroke-width="0.7885" stroke-miterlimit="10" stroke-linecap="round"/>
<path d="M83.3521 16.1329C84.6068 17.2633 84.7773 17.5998 84.7491 19.8177C84.7006 23.6155 84.9924 26.9264 86.4576 30.4305C87.9229 33.9343 90.7078 37.0396 94.3433 38.1389C97.9788 39.2381 102.416 37.9115 104.274 34.5986C106.131 31.2859 104.469 26.3192 100.795 25.3568C96.8687 24.3285 94.6526 19.9842 94.4073 15.9333C94.352 15.0216 93.5736 14.2078 92.6651 14.1124C91.7566 14.0168 83.3521 16.1329 83.3521 16.1329Z" fill="#D0E7FF"/>
<path d="M83.3521 16.1329C84.6068 17.2633 84.7773 17.5998 84.7491 19.8177C84.7006 23.6155 84.9924 26.9264 86.4576 30.4305C87.9229 33.9343 90.7078 37.0396 94.3433 38.1389C97.9788 39.2381 102.416 37.9115 104.274 34.5986C106.131 31.2859 104.469 26.3192 100.795 25.3568C96.8687 24.3285 94.6526 19.9842 94.4073 15.9333C94.352 15.0216 93.5736 14.2078 92.6651 14.1124C91.7566 14.0168 83.3521 16.1329 83.3521 16.1329Z" stroke="black" stroke-width="0.7885" stroke-miterlimit="10" stroke-linecap="round"/>
<path d="M80.4275 27.6064C80.461 29.6602 80.1071 32.649 79.2505 33.8791" stroke="black" stroke-width="0.7885" stroke-miterlimit="10" stroke-linecap="round"/>
<path d="M74.3926 19.8929C75 21.8884 74.9247 21.641 75.532 23.6365C76.2496 25.9938 78.7312 27.6811 81.1871 27.4814C83.6431 27.2816 85.8196 25.2156 86.1468 22.7733" stroke="black" stroke-width="0.7885" stroke-miterlimit="10" stroke-linecap="round"/>
<path d="M68.1863 16.3274L74.7754 13.7664C74.9952 9.37047 79.1324 5.54818 83.532 5.67616C87.9317 5.80414 91.8397 9.86051 91.8036 14.2618C82.1252 18.0167 76.833 18.3038 73.6901 17.749C70.2734 17.1457 69.3968 15.5474 68.1863 16.3274C67.2872 16.9068 67.1704 18.292 67.7739 19.1751C68.3772 20.0582 69.4994 20.4705 70.5688 20.4841C71.6382 20.4979 73.3152 20.034 74.3349 19.7111L73.6901 17.749" fill="#EBE6FF"/>
<path d="M68.1863 16.3274L74.7754 13.7664C74.9952 9.37047 79.1324 5.54818 83.532 5.67616C87.9317 5.80414 91.8397 9.86051 91.8036 14.2618C82.1252 18.0167 76.833 18.3038 73.6901 17.749M68.1863 16.3274C69.3968 15.5474 70.2734 17.1457 73.6901 17.749M68.1863 16.3274C67.2872 16.9068 67.1704 18.292 67.7739 19.1751C68.3772 20.0582 69.4994 20.4705 70.5688 20.4841C71.6382 20.4979 73.3152 20.034 74.3349 19.7111L73.6901 17.749" stroke="black" stroke-width="0.7885" stroke-miterlimit="10" stroke-linecap="round"/>
<path d="M74.1386 17.8201C73.9842 17.7983 73.8348 17.7745 73.6899 17.749C70.2732 17.1458 69.3966 15.5473 68.1861 16.3274C67.287 16.9068 67.1702 18.2919 67.7735 19.1751C68.377 20.0582 69.4992 20.4705 70.5686 20.4842C71.638 20.4979 73.315 20.034 74.3347 19.7109L73.6899 17.749" fill="#7B5EF2"/>
<path d="M74.1386 17.8201C73.9842 17.7983 73.8348 17.7745 73.6899 17.749M73.6899 17.749C70.2732 17.1458 69.3966 15.5473 68.1861 16.3274C67.287 16.9068 67.1702 18.2919 67.7735 19.1751C68.377 20.0582 69.4992 20.4705 70.5686 20.4842C71.638 20.4979 73.315 20.034 74.3347 19.7109L73.6899 17.749Z" stroke="black" stroke-width="0.7885" stroke-miterlimit="10" stroke-linecap="round"/>
<path d="M76.0273 21.3333C76.0273 21.3333 77.284 21.8591 78.1606 21.4126L76.0273 21.3333Z" fill="#7B5EF2"/>
<path d="M76.0273 21.3333C76.0273 21.3333 77.284 21.8591 78.1606 21.4126" stroke="black" stroke-width="0.7885" stroke-miterlimit="10" stroke-linecap="round"/>
<path d="M79.6314 21.3344C79.6314 21.3344 80.8606 21.546 81.7371 21.0995L79.6314 21.3344Z" fill="#7B5EF2"/>
<path d="M79.6314 21.3344C79.6314 21.3344 80.8606 21.546 81.7371 21.0995" stroke="black" stroke-width="0.7885" stroke-miterlimit="10" stroke-linecap="round"/>
<path d="M79.707 10.0757C79.4081 10.0466 79.1697 10.0947 78.972 10.334C78.8242 10.5126 78.7274 10.7639 78.9439 10.9289C79.2428 11.1564 79.8375 11.0656 79.9625 11.5189C80.0408 11.8032 79.7014 11.868 79.4935 11.8275C79.2646 11.7828 79.102 11.6284 78.9901 11.4334C78.9505 11.3643 78.6119 11.6667 78.6861 11.7959C79.0563 12.4412 79.9169 12.2608 80.2361 11.6623C80.3889 11.3756 80.3029 11.069 80.0385 10.8808C79.8953 10.7789 79.7188 10.7337 79.5538 10.6817C79.4914 10.6621 79.2341 10.6246 79.2146 10.538C79.1841 10.4022 79.3277 10.4426 79.4484 10.4544C79.5793 10.467 79.8183 10.0866 79.707 10.0757Z" fill="white"/>
<path d="M78.4118 10.2069L77.9317 10.2489C77.8953 10.2521 77.8567 10.2797 77.8288 10.2999C77.7808 10.3348 77.7337 10.3791 77.6955 10.4244C77.666 10.4596 77.629 10.4997 77.6156 10.5444C77.6104 10.5612 77.6003 10.5977 77.6322 10.5949L78.1123 10.5529C78.1488 10.5497 78.1874 10.5222 78.2154 10.5019C78.2633 10.4672 78.3104 10.4227 78.3485 10.3774C78.3781 10.3422 78.4151 10.3019 78.4286 10.2574C78.4336 10.2405 78.4437 10.2041 78.4118 10.2069Z" fill="white"/>
<path d="M78.1291 10.9371L76.9973 11.0361C76.9076 11.044 76.8153 11.1473 76.7613 11.2116C76.7489 11.2261 76.6287 11.3882 76.698 11.3821L77.8296 11.2831C77.9194 11.2752 78.0117 11.1719 78.0658 11.1076C78.078 11.0931 78.1983 10.9311 78.1291 10.9371Z" fill="white"/>
<path d="M78.2883 11.7381L77.6366 11.7951C77.6004 11.7983 77.5618 11.8259 77.5338 11.8461C77.4859 11.881 77.4388 11.9253 77.4006 11.9706C77.3711 12.0058 77.3341 12.0459 77.3206 12.0906C77.3155 12.1074 77.3054 12.1439 77.3373 12.1411L77.9888 12.0841C78.0253 12.0809 78.0639 12.0535 78.0919 12.0331C78.1398 11.9982 78.1869 11.9539 78.225 11.9084C78.2545 11.8734 78.2915 11.8331 78.3051 11.7886C78.3101 11.7717 78.3202 11.7353 78.2883 11.7381Z" fill="white"/>
<path d="M56.0193 87.36C56.0193 87.36 64.3793 99.9 56.5893 105.6C50.803 109.834 22.5793 84.32 16.1193 99.14C9.6593 113.96 43.554 141.339 50.5093 137.52C60.1993 132.2 51.8393 113.96 44.2393 122.13C32.4602 134.793 10.0393 146.07 23.5293 110.92C36.9376 75.9828 9.4693 86.41 4.5293 91.73" stroke="black" stroke-width="0.38" stroke-dasharray="2.28 190"/>
<path d="M52.2185 88.5C52.2185 88.5 60.5785 101.04 52.7885 106.74C47.0023 110.974 18.7785 85.46 12.3185 100.28C5.85852 115.1 39.7532 142.479 46.7085 138.66C56.3985 133.34 48.0385 115.1 40.4385 123.27C28.6595 135.933 6.23852 147.21 19.7285 112.06C33.1368 77.1228 5.66852 87.55 0.728516 92.87" stroke="black" stroke-width="0.38" stroke-dasharray="5.7 190"/>
</svg>
