<svg width="16" height="12" viewBox="0 0 16 12" fill="none" xmlns="http://www.w3.org/2000/svg">
<g id="elements">
<path id="Ellipse 1333" d="M14.3626 5.36332C14.5652 5.64754 14.6666 5.78964 14.6666 6C14.6666 6.21036 14.5652 6.35246 14.3626 6.63668C13.4519 7.9137 11.1261 10.6667 7.99992 10.6667C4.87377 10.6667 2.54798 7.91371 1.63728 6.63668C1.43459 6.35246 1.33325 6.21036 1.33325 6C1.33325 5.78964 1.43459 5.64754 1.63728 5.36332C2.54798 4.08629 4.87377 1.33333 7.99992 1.33333C11.1261 1.33333 13.4519 4.08629 14.3626 5.36332Z" stroke="#555555" stroke-width="1.5"/>
<path id="Ellipse 1334" d="M10 6C10 4.89543 9.10457 4 8 4C6.89543 4 6 4.89543 6 6C6 7.10457 6.89543 8 8 8C9.10457 8 10 7.10457 10 6Z" stroke="#555555" stroke-width="1.5"/>
</g>
</svg>
