<svg width="16" height="17" viewBox="0 0 16 17" fill="none" xmlns="http://www.w3.org/2000/svg">
<path d="M10 8.43545C10 7.69907 10.597 7.10211 11.3333 7.10211C12.8061 7.10211 14 8.29602 14 9.76878C14 11.2415 12.8061 12.4354 11.3333 12.4354C10.597 12.4354 10 11.8385 10 11.1021V8.43545Z" stroke="#555555" stroke-width="1.5"/>
<path d="M6 8.43545C6 7.69907 5.40305 7.10211 4.66667 7.10211C3.19391 7.10211 2 8.29602 2 9.76878C2 11.2415 3.19391 12.4354 4.66667 12.4354C5.40305 12.4354 6 11.8385 6 11.1021V8.43545Z" stroke="#555555" stroke-width="1.5"/>
<path d="M2 9.76878V7.76878C2 4.45508 4.68629 1.76878 8 1.76878C11.3137 1.76878 14 4.45508 14 7.76878V10.9996C14 12.3384 14 13.0079 13.7651 13.5299C13.4977 14.1241 13.0219 14.5998 12.4278 14.8672C11.9058 15.1021 11.2363 15.1021 9.89744 15.1021H8" stroke="#555555" stroke-width="1.5" stroke-linecap="round" stroke-linejoin="round"/>
</svg>
