<svg width="25" height="24" viewBox="0 0 25 24" fill="none" xmlns="http://www.w3.org/2000/svg">
<path d="M15.75 2L16.2887 4.39157C16.7457 6.42015 18.3298 8.00431 20.3584 8.46127L22.75 9L20.3584 9.53873C18.3298 9.99569 16.7457 11.5798 16.2887 13.6084L15.75 16L15.2113 13.6084C14.7543 11.5798 13.1702 9.99569 11.1416 9.53873L8.75 9L11.1416 8.46127C13.1701 8.00431 14.7543 6.42015 15.2113 4.39158L15.75 2Z" stroke="#197CE2" stroke-width="1.5" stroke-linejoin="round"/>
<path d="M7.75 12L8.13481 13.7083C8.46121 15.1572 9.59275 16.2888 11.0417 16.6152L12.75 17L11.0417 17.3848C9.59275 17.7112 8.46121 18.8427 8.13481 20.2917L7.75 22L7.36519 20.2917C7.03879 18.8427 5.90725 17.7112 4.45827 17.3848L2.75 17L4.45827 16.6152C5.90725 16.2888 7.03879 15.1573 7.36519 13.7083L7.75 12Z" stroke="#197CE2" stroke-width="1.5" stroke-linejoin="round"/>
</svg>
