<svg width="22" height="22" viewBox="0 0 22 22" fill="none" xmlns="http://www.w3.org/2000/svg">
<path d="M6 5.5H15.75C17.8567 5.5 18.91 5.5 19.6667 6.00559C19.9943 6.22447 20.2755 6.50572 20.4944 6.83329C20.9108 7.4565 20.984 8.11137 20.9969 9.5M11 5.5L10.3666 4.23313C9.84179 3.18358 9.36223 2.12712 8.19926 1.69101C7.6899 1.5 7.10802 1.5 5.94427 1.5C4.1278 1.5 3.21956 1.5 2.53806 1.88032C2.05227 2.15142 1.65142 2.55227 1.38032 3.03806C1 3.71956 1 4.6278 1 6.44427V9.5C1 14.214 1 16.5711 2.46447 18.0355C3.8215 19.3926 5.94493 19.4921 10 19.4994" stroke="#141B34" stroke-width="1.5" stroke-linecap="round"/>
<path d="M16.4991 11.5C15.0744 11.5 14.1506 12.4085 13.0581 12.7397C12.6138 12.8744 12.3917 12.9417 12.3018 13.0366C12.2119 13.1315 12.1856 13.2702 12.133 13.5476C11.5696 16.5157 12.801 19.2598 15.7375 20.3279C16.053 20.4426 16.2108 20.5 16.5007 20.5C16.7906 20.5 16.9484 20.4426 17.2639 20.3279C20.2002 19.2598 21.4304 16.5157 20.8669 13.5476C20.8142 13.2701 20.7879 13.1314 20.698 13.0365C20.6081 12.9416 20.386 12.8743 19.9418 12.7397C18.8488 12.4086 17.9239 11.5 16.4991 11.5Z" stroke="#141B34" stroke-width="1.5" stroke-linecap="round" stroke-linejoin="round"/>
</svg>
