<svg width="64" height="64" viewBox="0 0 64 64" fill="none" xmlns="http://www.w3.org/2000/svg">
<path fill-rule="evenodd" clip-rule="evenodd" d="M64 32C64 49.673 49.673 64 32 64C14.3269 64 0 49.673 0 32C0 14.3269 14.3269 0 32 0C49.673 0 64 14.3269 64 32ZM22.3028 22.3029C23.2401 21.3656 24.7596 21.3656 25.697 22.3029L32 28.6058L38.3027 22.3029C39.24 21.3657 40.7597 21.3657 41.697 22.3029C42.6342 23.2402 42.6342 24.7598 41.697 25.697L35.3939 32L41.697 38.3027C42.6342 39.24 42.6342 40.7597 41.697 41.697C40.7597 42.6342 39.24 42.6342 38.3027 41.697L32 35.3942L25.697 41.697C24.7597 42.6342 23.2401 42.6342 22.3029 41.697C21.3656 40.7597 21.3656 39.24 22.3029 38.303L28.6058 32L22.3028 25.697C21.3655 24.7597 21.3655 23.2401 22.3028 22.3029Z" fill="#BE2921"/>
</svg>
